<svg version="1.2" xmlns="http://www.w3.org/2000/svg" viewBox="0 0 120 90" width="120" height="90">
	<title>mdn-svg</title>
	<defs>
		<linearGradient id="g1" x2="1" gradientUnits="userSpaceOnUse" gradientTransform="matrix(0,-62.864,71.305,0,59.952,74.897)">
			<stop offset="0" stop-color="#2075bc"/>
			<stop offset="1" stop-color="#29aae1"/>
		</linearGradient>
		<linearGradient id="g2" x2="1" gradientUnits="userSpaceOnUse" gradientTransform="matrix(0,-62.864,17.881,0,33.24,74.897)">
			<stop offset="0" stop-color="#0a6aa8"/>
			<stop offset="1" stop-color="#1699c8"/>
		</linearGradient>
		<linearGradient id="g3" x2="1" gradientUnits="userSpaceOnUse" gradientTransform="matrix(0,-62.864,17.881,0,51.011,74.897)">
			<stop offset="0" stop-color="#2075bc"/>
			<stop offset="1" stop-color="#29aae1"/>
		</linearGradient>
		<linearGradient id="g4" x2="1" gradientUnits="userSpaceOnUse" gradientTransform="matrix(0,-62.864,17.77,0,68.837,74.897)">
			<stop offset="0" stop-color="#0a6aa8"/>
			<stop offset="1" stop-color="#1699c8"/>
		</linearGradient>
		<linearGradient id="g5" x2="1" gradientUnits="userSpaceOnUse" gradientTransform="matrix(0,-62.864,17.994,0,86.608,74.897)">
			<stop offset="0" stop-color="#2075bc"/>
			<stop offset="1" stop-color="#29aae1"/>
		</linearGradient>
		<clipPath clipPathUnits="userSpaceOnUse" id="cp1">
			<path d="m85.39 44.62c-0.67-1.88-0.45-5.11-0.78-5.55-2.11-2.89-9.66-3.33-13.11-7.11 0.56-1.89-0.66-3.33-1.88-4.55-1.89-1.33-4.45-0.78-6.45-0.22-2.22-0.45-4.33-1.34-6.55-1.89-4.89-0.56-9.77 2.89-9.77 2.89-3.56 2.22-9 6.88-11.67 9.55 0.67 0.11 1.34-0.45 2.11-0.45l5.11-1.33c-2.11 1.78-6.55 4.78-7.88 7.22 1.55-0.56 4.88-2.33 6.55-2.55-1.44 1.22-4.44 3.66-5.44 5.21 0.11 0.12 0 0.23 0 0.34 1.22-0.67 4.22-2.45 5.66-2.56-1.44 1.45-4 4.34-4.55 6.22 1.22-0.77 4.33-2.44 5.66-2.88-0.33 0.77-1 1.33-1.44 1.99-0.67 1-2.11 2.23-2.11 3.45 1.11-1 2.44-1.89 3.78-2.56-0.56 1.22-1.67 2.23-2 3.78 0.88-0.89 2.55-1.33 3.66-1.67l-0.11 0.12c-0.11 0.11-1.33 0.99-2.22 1.99 0.78 0 0.22-0.11 1.22 0.11h0.56c-0.23 0.12-0.56 0.34-0.89 0.45-0.45 0.22-1 0.55-1.45 0.78 2.11 2.66 4.67 4.88 7.67 6.33 3.88 1.89 8.1 2.55 12.44 2 0-0.23-0.11-0.45-0.22-0.78-0.12-0.33-0.23-0.56-0.23-0.89 1.45-2.67 0.67-7.33 4.44-9.22 2.56-1.33 2.78-2 5.67-1.44 1.55 0.33 5 1.44 6.55 1.11 1.45-0.78 2.22-1.22 3.56-2.11 1.55 0.33 2.11 0.11 2.66-0.67-0.55 0.78 1-2.89 1.67-4.22z"/>
		</clipPath>
		<clipPath clipPathUnits="userSpaceOnUse" id="cp2">
			<path d="m85.39 44.62c-0.67-1.88-0.45-5.11-0.78-5.55-2.11-2.89-9.66-3.33-13.11-7.11 0.56-1.89-0.66-3.33-1.88-4.55-1.89-1.33-4.45-0.78-6.45-0.22-2.22-0.45-4.33-1.34-6.55-1.89-4.89-0.56-9.77 2.89-9.77 2.89-3.56 2.22-9 6.88-11.67 9.55 0.67 0.11 1.34-0.45 2.11-0.45l5.11-1.33c-2.11 1.78-6.55 4.78-7.88 7.22 1.55-0.56 4.88-2.33 6.55-2.55-1.44 1.22-4.44 3.66-5.44 5.21 0.11 0.12 0 0.23 0 0.34 1.22-0.67 4.22-2.45 5.66-2.56-1.44 1.45-4 4.34-4.55 6.22 1.22-0.77 4.33-2.44 5.66-2.88-0.33 0.77-1 1.33-1.44 1.99-0.67 1-2.11 2.23-2.11 3.45 1.11-1 2.44-1.89 3.78-2.56-0.56 1.22-1.67 2.23-2 3.78 0.88-0.89 2.55-1.33 3.66-1.67l-0.11 0.12c-0.11 0.11-1.33 0.99-2.22 1.99 0.78 0 0.22-0.11 1.22 0.11h0.56c-0.23 0.12-0.56 0.34-0.89 0.45-0.45 0.22-1 0.55-1.45 0.78 2.11 2.66 4.67 4.88 7.67 6.33 3.88 1.89 8.1 2.55 12.44 2 0-0.23-0.11-0.45-0.22-0.78-0.12-0.33-0.23-0.56-0.23-0.89 1.45-2.67 0.67-7.33 4.44-9.22 2.56-1.33 2.78-2 5.67-1.44 1.55 0.33 5 1.44 6.55 1.11 1.45-0.78 2.22-1.22 3.56-2.11 1.55 0.33 2.11 0.11 2.66-0.67-0.55 0.78 1-2.89 1.67-4.22z"/>
		</clipPath>
		<clipPath clipPathUnits="userSpaceOnUse" id="cp3">
			<path d="m85.39 44.62c-0.67-1.88-0.45-5.11-0.78-5.55-2.11-2.89-9.66-3.33-13.11-7.11 0.56-1.89-0.66-3.33-1.88-4.55-1.89-1.33-4.45-0.78-6.45-0.22-2.22-0.45-4.33-1.34-6.55-1.89-4.89-0.56-9.77 2.89-9.77 2.89-3.56 2.22-9 6.88-11.67 9.55 0.67 0.11 1.34-0.45 2.11-0.45l5.11-1.33c-2.11 1.78-6.55 4.78-7.88 7.22 1.55-0.56 4.88-2.33 6.55-2.55-1.44 1.22-4.44 3.66-5.44 5.21 0.11 0.12 0 0.23 0 0.34 1.22-0.67 4.22-2.45 5.66-2.56-1.44 1.45-4 4.34-4.55 6.22 1.22-0.77 4.33-2.44 5.66-2.88-0.33 0.77-1 1.33-1.44 1.99-0.67 1-2.11 2.23-2.11 3.45 1.11-1 2.44-1.89 3.78-2.56-0.56 1.22-1.67 2.23-2 3.78 0.88-0.89 2.55-1.33 3.66-1.67l-0.11 0.12c-0.11 0.11-1.33 0.99-2.22 1.99 0.78 0 0.22-0.11 1.22 0.11h0.56c-0.23 0.12-0.56 0.34-0.89 0.45-0.45 0.22-1 0.55-1.45 0.78 2.11 2.66 4.67 4.88 7.67 6.33 3.88 1.89 8.1 2.55 12.44 2 0-0.23-0.11-0.45-0.22-0.78-0.12-0.33-0.23-0.56-0.23-0.89 1.45-2.67 0.67-7.33 4.44-9.22 2.56-1.33 2.78-2 5.67-1.44 1.55 0.33 5 1.44 6.55 1.11 1.45-0.78 2.22-1.22 3.56-2.11 1.55 0.33 2.11 0.11 2.66-0.67-0.55 0.78 1-2.89 1.67-4.22z"/>
		</clipPath>
		<clipPath clipPathUnits="userSpaceOnUse" id="cp4">
			<path d="m85.39 44.62c-0.67-1.88-0.45-5.11-0.78-5.55-2.11-2.89-9.66-3.33-13.11-7.11 0.56-1.89-0.66-3.33-1.88-4.55-1.89-1.33-4.45-0.78-6.45-0.22-2.22-0.45-4.33-1.34-6.55-1.89-4.89-0.56-9.77 2.89-9.77 2.89-3.56 2.22-9 6.88-11.67 9.55 0.67 0.11 1.34-0.45 2.11-0.45l5.11-1.33c-2.11 1.78-6.55 4.78-7.88 7.22 1.55-0.56 4.88-2.33 6.55-2.55-1.44 1.22-4.44 3.66-5.44 5.21 0.11 0.12 0 0.23 0 0.34 1.22-0.67 4.22-2.45 5.66-2.56-1.44 1.45-4 4.34-4.55 6.22 1.22-0.77 4.33-2.44 5.66-2.88-0.33 0.77-1 1.33-1.44 1.99-0.67 1-2.11 2.23-2.11 3.45 1.11-1 2.44-1.89 3.78-2.56-0.56 1.22-1.67 2.23-2 3.78 0.88-0.89 2.55-1.33 3.66-1.67l-0.11 0.12c-0.11 0.11-1.33 0.99-2.22 1.99 0.78 0 0.22-0.11 1.22 0.11h0.56c-0.23 0.12-0.56 0.34-0.89 0.45-0.45 0.22-1 0.55-1.45 0.78 2.11 2.66 4.67 4.88 7.67 6.33 3.88 1.89 8.1 2.55 12.44 2 0-0.23-0.11-0.45-0.22-0.78-0.12-0.33-0.23-0.56-0.23-0.89 1.45-2.67 0.67-7.33 4.44-9.22 2.56-1.33 2.78-2 5.67-1.44 1.55 0.33 5 1.44 6.55 1.11 1.45-0.78 2.22-1.22 3.56-2.11 1.55 0.33 2.11 0.11 2.66-0.67-0.55 0.78 1-2.89 1.67-4.22z"/>
		</clipPath>
		<clipPath clipPathUnits="userSpaceOnUse" id="cp5">
			<path d="m85.39 44.62c-0.67-1.88-0.45-5.11-0.78-5.55-2.11-2.89-9.66-3.33-13.11-7.11 0.56-1.89-0.66-3.33-1.88-4.55-1.89-1.33-4.45-0.78-6.45-0.22-2.22-0.45-4.33-1.34-6.55-1.89-4.89-0.56-9.77 2.89-9.77 2.89-3.56 2.22-9 6.88-11.67 9.55 0.67 0.11 1.34-0.45 2.11-0.45l5.11-1.33c-2.11 1.78-6.55 4.78-7.88 7.22 1.55-0.56 4.88-2.33 6.55-2.55-1.44 1.22-4.44 3.66-5.44 5.21 0.11 0.12 0 0.23 0 0.34 1.22-0.67 4.22-2.45 5.66-2.56-1.44 1.45-4 4.34-4.55 6.22 1.22-0.77 4.33-2.44 5.66-2.88-0.33 0.77-1 1.33-1.44 1.99-0.67 1-2.11 2.23-2.11 3.45 1.11-1 2.44-1.89 3.78-2.56-0.56 1.22-1.67 2.23-2 3.78 0.88-0.89 2.55-1.33 3.66-1.67l-0.11 0.12c-0.11 0.11-1.33 0.99-2.22 1.99 0.78 0 0.22-0.11 1.22 0.11h0.56c-0.23 0.12-0.56 0.34-0.89 0.45-0.45 0.22-1 0.55-1.45 0.78 2.11 2.66 4.67 4.88 7.67 6.33 3.88 1.89 8.1 2.55 12.44 2 0-0.23-0.11-0.45-0.22-0.78-0.12-0.33-0.23-0.56-0.23-0.89 1.45-2.67 0.67-7.33 4.44-9.22 2.56-1.33 2.78-2 5.67-1.44 1.55 0.33 5 1.44 6.55 1.11 1.45-0.78 2.22-1.22 3.56-2.11 1.55 0.33 2.11 0.11 2.66-0.67-0.55 0.78 1-2.89 1.67-4.22z"/>
		</clipPath>
	</defs>
	<style>
		.s0 { fill: url(#g1) } 
		.s1 { fill: url(#g2) } 
		.s2 { fill: url(#g3) } 
		.s3 { fill: url(#g4) } 
		.s4 { fill: url(#g5) } 
		.s5 { fill: #ffffff } 
		.s6 { fill: #f2f2f2 } 
	</style>
	<g>
		<path class="s0" d="m77.7 12.1v-0.1 0.1l-0.1-0.1v0.1l-17.6 7-17.8-7v-0.1l-0.1 0.1v-0.1 0.1l-17.8 7.1v55.6l17.8-6.7 17.9 6.7 17.7-6.7 17.9 6.7v-55.6z"/>
		<g>
			<path class="s1" d="m24.3 19.2v55.6l17.9-6.7v-56.1z"/>
			<path class="s2" d="m60 19.2v55.6l-17.9-6.7v-56.1z"/>
			<path class="s3" d="m60 19.2v55.6l17.7-6.7v-56.1z"/>
			<path class="s4" d="m95.6 19.2v55.6l-18-6.7v-56.1z"/>
		</g>
		<g>
			<g>
				<g>
					<g>
						<g id="Clip-Path" clip-path="url(#cp1)">
							<path class="s5" d="m60 67.3c-18.4 0-33.1-10-33.1-22.5 0-12.4 14.7-22.4 33.1-22.4 18.3 0 33.1 10 33.1 22.4 0 12.5-14.8 22.5-33.1 22.5z"/>
						</g>
					</g>
				</g>
			</g>
			<g>
				<g>
					<g>
						<g id="Clip-Path" clip-path="url(#cp2)">
							<path class="s6" d="m24.7 20.2v56.3l17.7-7v-56.4z"/>
						</g>
					</g>
				</g>
			</g>
			<g>
				<g>
					<g>
						<g id="Clip-Path" clip-path="url(#cp3)">
							<path class="s5" d="m60.1 20.2v56.3l-17.8-7v-56.4z"/>
						</g>
					</g>
				</g>
			</g>
			<g>
				<g>
					<g>
						<g id="Clip-Path" clip-path="url(#cp4)">
							<path class="s6" d="m60.1 20.2v56.3l17.5-7v-56.4z"/>
						</g>
					</g>
				</g>
			</g>
			<g>
				<g>
					<g>
						<g id="Clip-Path" clip-path="url(#cp5)">
							<path class="s5" d="m95.4 20.2v56.3l-17.8-7v-56.4z"/>
						</g>
					</g>
				</g>
			</g>
		</g>
	</g>
</svg>